<svg width="150" height="112" xmlns="http://www.w3.org/2000/svg" xmlns:xlink="http://www.w3.org/1999/xlink" overflow="hidden"><defs><clipPath id="clip0"><rect x="902" y="583" width="150" height="112"/></clipPath><clipPath id="clip1"><rect x="905" y="583" width="142" height="105"/></clipPath></defs><g clip-path="url(#clip0)" transform="translate(-902 -583)"><g clip-path="url(#clip1)"><path d="M5.97594 101.372C5.97594 101.945 5.78854 102.538 5.42415 102.976L6.01758 103.548 5.78854 103.798 5.20552 103.236C4.82031 103.569 4.26853 103.777 3.60222 103.777 2.00933 103.777 1.20768 102.632 1.2285 101.341 1.23891 100.092 2.03015 98.9674 3.60222 98.9674 5.1847 98.9674 5.97594 100.092 5.97594 101.372M1.58248 101.341C1.57207 102.455 2.23837 103.434 3.60222 103.434 4.94524 103.434 5.62196 102.455 5.62196 101.372 5.62196 100.269 4.94524 99.3109 3.60222 99.3109 2.40495 99.3109 1.58248 100.196 1.58248 101.341" fill="#1562A1" transform="matrix(1 0 0 1.00095 905.942 583.618)"/><path d="M5.79895 104.058 5.19511 103.475C4.76826 103.788 4.21647 103.954 3.60222 103.954 2.85263 103.954 2.21755 103.715 1.75947 103.246 1.29097 102.778 1.03069 102.101 1.0411 101.341 1.05152 100.071 1.85317 98.7904 3.60222 98.7904 4.35181 98.7904 4.98689 99.0402 5.44497 99.4879 5.91347 99.9564 6.16334 100.633 6.16334 101.383 6.16334 101.955 5.98635 102.528 5.67402 102.965L6.28827 103.559 5.79895 104.058ZM3.60222 99.4983C2.54029 99.4983 1.76988 100.269 1.76988 101.341 1.75947 101.914 1.94686 102.413 2.28002 102.757 2.60276 103.08 3.06085 103.257 3.60222 103.257 4.95566 103.257 5.43456 102.247 5.43456 101.383 5.43456 100.508 4.95566 99.4983 3.60222 99.4983M2.49865 99.3942C2.22796 99.54 2.00933 99.7274 1.85317 99.946 2.01974 99.7274 2.23837 99.54 2.49865 99.3942" fill="#1562A1" transform="matrix(1 0 0 1.00095 905.942 583.618)"/><path d="M16.9908 99.0298 16.9908 101.955C16.9908 104.412 13.3886 104.423 13.3886 101.955L13.3886 99.0298 13.7426 99.0298 13.7426 101.955C13.7426 103.975 16.6264 103.965 16.6264 101.955L16.6264 99.0298 16.9908 99.0298Z" fill="#1562A1" transform="matrix(1 0 0 1.00095 905.942 583.618)"/><path d="M15.1897 103.975C14.2007 103.975 13.2116 103.278 13.2116 101.945L13.2116 98.8424 13.9404 98.8424 13.9404 101.945C13.9404 102.851 14.5963 103.278 15.2001 103.278 15.804 103.278 16.4599 102.861 16.4599 101.945L16.4599 98.8424 17.1886 98.8424 17.1886 101.945C17.1782 103.278 16.1788 103.975 15.1897 103.975" fill="#1562A1" transform="matrix(1 0 0 1.00095 905.942 583.618)"/><path d="M28.4326 103.725 27.912 102.57 25.101 102.57 24.5909 103.725 24.2057 103.725 26.3191 99.0298 26.7147 99.0298 28.8282 103.725 28.4326 103.725ZM27.7767 102.236 26.5169 99.3734 25.2572 102.236 27.7767 102.236Z" fill="#1562A1" transform="matrix(1 0 0 1.00095 905.942 583.618)"/><path d="M29.1093 103.913 28.318 103.913 27.7975 102.757 25.226 102.757 24.7158 103.913 23.9246 103.913 26.1942 98.8424 26.8293 98.8424 29.1093 103.913ZM25.5279 102.049 27.4851 102.049 26.5065 99.8315 25.5279 102.049Z" fill="#1562A1" transform="matrix(1 0 0 1.00095 905.942 583.618)"/><path d="M36.5636 99.0298 36.5636 103.382 39.208 103.382 39.208 103.725 36.1992 103.725 36.1992 99.0298Z" fill="#1562A1" transform="matrix(1 0 0 1.00095 905.942 583.618)"/><path d="M39.3954 103.913 36.0222 103.913 36.0222 98.8424 36.751 98.8424 36.751 103.205 39.3954 103.205Z" fill="#1562A1" transform="matrix(1 0 0 1.00095 905.942 583.618)"/><path d="M46.6206 99.0298 46.9746 99.0298 46.9746 103.725 46.6206 103.725Z" fill="#1562A1" transform="matrix(1 0 0 1.00095 905.942 583.618)"/><path d="M46.4332 98.8424 47.162 98.8424 47.162 103.913 46.4332 103.913Z" fill="#1562A1" transform="matrix(1 0 0 1.00095 905.942 583.618)"/><path d="M56.2717 99.363 54.5747 99.363 54.5747 99.0402 58.3331 99.0402 58.3331 99.363 56.6361 99.363 56.6361 103.725 56.2717 103.725Z" fill="#1562A1" transform="matrix(1 0 0 1.00095 905.942 583.618)"/><path d="M56.813 103.913 56.0843 103.913 56.0843 99.54 54.3873 99.54 54.3873 98.8528 58.5101 98.8528 58.5101 99.54 56.813 99.54Z" fill="#1562A1" transform="matrix(1 0 0 1.00095 905.942 583.618)"/><path d="M67.4427 101.851 65.6104 99.0402 65.6104 99.0298 66.0268 99.0298 67.6197 101.497 69.223 99.0298 69.6395 99.0298 69.6395 99.0402 67.8071 101.851 67.8071 103.725 67.4427 103.725Z" fill="#1562A1" transform="matrix(1 0 0 1.00095 905.942 583.618)"/><path d="M67.9841 103.913 67.2553 103.913 67.2553 101.903 65.423 99.0923 65.423 98.8528 66.1309 98.8424 67.6197 101.164 69.1189 98.8424 69.8269 98.8424 69.8269 99.0819 69.7956 99.1339 67.9841 101.903Z" fill="#1562A1" transform="matrix(1 0 0 1.00095 905.942 583.618)"/><path d="M85.9327 101.268 88.6396 101.268 88.6396 101.601 85.9327 101.601 85.9327 103.736 85.5683 103.736 85.5683 99.0298 88.7333 99.0298 88.7333 99.3942 85.9327 99.3942Z" fill="#1562A1" transform="matrix(1 0 0 1.00095 905.942 583.618)"/><path d="M86.1201 103.923 85.3913 103.923 85.3913 98.8424 88.9207 98.8424 88.9207 99.5712 86.1201 99.5712 86.1201 101.081 88.827 101.081 88.827 101.789 86.1201 101.789Z" fill="#1562A1" transform="matrix(1 0 0 1.00095 905.942 583.618)"/><path d="M100.925 101.383C100.914 102.611 100.133 103.808 98.5509 103.808 96.9684 103.808 96.1772 102.611 96.1772 101.372 96.1772 100.113 96.958 98.9569 98.5509 98.9569 100.144 98.9569 100.935 100.113 100.925 101.383M96.5416 101.372C96.552 102.434 97.2183 103.465 98.5613 103.465 99.9043 103.465 100.581 102.434 100.581 101.372 100.581 100.29 99.9148 99.2901 98.5613 99.2901 97.2079 99.2901 96.5312 100.269 96.5416 101.372" fill="#1562A1" transform="matrix(1 0 0 1.00095 905.942 583.618)"/><path d="M98.5613 103.996C96.8019 103.996 96.0106 102.632 96.0106 101.372 96.0106 100.081 96.8019 98.7695 98.5613 98.7695 99.3005 98.7695 99.9252 99.009 100.383 99.4671 100.862 99.946 101.112 100.623 101.112 101.383 101.102 102.642 100.3 103.996 98.5613 103.996M98.5613 99.4775C98.0304 99.4775 97.5723 99.6441 97.2495 99.9668 96.906 100.31 96.729 100.81 96.729 101.372 96.729 102.288 97.312 103.278 98.5613 103.278 99.8211 103.278 100.394 102.288 100.394 101.372 100.394 100.435 99.8211 99.4775 98.5613 99.4775" fill="#1562A1" transform="matrix(1 0 0 1.00095 905.942 583.618)"/><path d="M113.033 101.383C113.022 102.611 112.241 103.808 110.659 103.808 109.076 103.808 108.285 102.611 108.285 101.372 108.285 100.113 109.076 98.9569 110.659 98.9569 112.252 98.9569 113.043 100.113 113.033 101.383M108.65 101.372C108.66 102.434 109.326 103.465 110.669 103.465 112.012 103.465 112.689 102.434 112.689 101.372 112.689 100.29 112.012 99.2901 110.669 99.2901 109.316 99.2901 108.65 100.269 108.65 101.372" fill="#1562A1" transform="matrix(1 0 0 1.00095 905.942 583.618)"/><path d="M110.669 103.996C108.91 103.996 108.119 102.632 108.119 101.372 108.119 100.081 108.91 98.7695 110.669 98.7695 111.409 98.7695 112.033 99.009 112.491 99.4775 112.97 99.9564 113.22 100.633 113.22 101.393 113.21 102.642 112.408 103.996 110.669 103.996M110.669 99.4775C110.128 99.4775 109.68 99.6441 109.358 99.9668 109.014 100.31 108.837 100.81 108.837 101.372 108.847 102.288 109.42 103.278 110.669 103.278 111.929 103.278 112.502 102.288 112.502 101.372 112.502 100.435 111.94 99.4775 110.669 99.4775" fill="#1562A1" transform="matrix(1 0 0 1.00095 905.942 583.618)"/><path d="M124.547 101.331C124.579 102.528 123.808 103.736 122.163 103.736L120.57 103.736 120.57 99.0402 122.163 99.0402C123.756 99.0298 124.526 100.165 124.547 101.331M120.935 99.3734 120.935 103.382 122.163 103.382C123.558 103.382 124.204 102.33 124.183 101.331 124.162 100.352 123.517 99.3734 122.163 99.3734L120.935 99.3734Z" fill="#1562A1" transform="matrix(1 0 0 1.00095 905.942 583.618)"/><path d="M122.163 103.913 120.393 103.913 120.393 98.8424 122.163 98.8424C123.891 98.8424 124.703 100.123 124.735 101.32 124.756 102.039 124.495 102.726 124.037 103.194 123.579 103.663 122.934 103.913 122.163 103.913M121.122 103.194 122.163 103.194C122.705 103.194 123.173 103.017 123.496 102.684 123.829 102.351 124.016 101.851 124.006 101.331 123.985 100.446 123.412 99.5608 122.174 99.5608L121.132 99.5608 121.132 103.194ZM124.162 102.351C124.068 102.559 123.943 102.736 123.798 102.903 123.954 102.747 124.068 102.559 124.162 102.351" fill="#1562A1" transform="matrix(1 0 0 1.00095 905.942 583.618)"/><path d="M135.135 99.9356C134.792 99.3838 134.24 99.3005 133.709 99.3005 133.157 99.3005 132.283 99.4983 132.283 100.258 132.283 100.852 132.928 100.998 133.719 101.143 134.625 101.32 135.562 101.476 135.562 102.497 135.552 103.559 134.49 103.808 133.699 103.808 132.97 103.808 132.137 103.507 131.773 102.788L132.095 102.622C132.387 103.194 133.126 103.475 133.699 103.475 134.271 103.475 135.198 103.319 135.198 102.486 135.208 101.778 134.427 101.633 133.657 101.476 132.793 101.31 131.918 101.133 131.918 100.269 131.897 99.2797 132.928 98.9674 133.699 98.9674 134.365 98.9674 134.958 99.0819 135.416 99.769L135.135 99.9356Z" fill="#1562A1" transform="matrix(1 0 0 1.00095 905.942 583.618)"/><path d="M133.709 103.985C132.97 103.985 132.033 103.694 131.616 102.861L131.533 102.695 132.189 102.361 132.272 102.528C132.522 103.017 133.188 103.278 133.709 103.278 134.105 103.278 135.021 103.194 135.021 102.465 135.021 101.945 134.469 101.799 133.626 101.643 132.741 101.466 131.741 101.279 131.741 100.248 131.731 99.8835 131.856 99.5712 132.095 99.3213 132.439 98.9778 133.043 98.7695 133.709 98.7695 134.479 98.7695 135.094 98.9153 135.583 99.6545L135.687 99.8211 135.073 100.185 134.979 100.029C134.698 99.5816 134.271 99.4879 133.709 99.4775 133.584 99.4775 132.47 99.4983 132.47 100.248 132.47 100.644 132.845 100.779 133.751 100.956L133.803 100.966C134.719 101.143 135.75 101.341 135.75 102.486 135.75 103.423 134.979 103.985 133.709 103.985M135.031 101.737C135.146 101.82 135.239 101.935 135.312 102.07 135.239 101.935 135.146 101.83 135.031 101.737" fill="#1562A1" transform="matrix(1 0 0 1.00095 905.942 583.618)"/><path d="M87.7651 46.3812 77.708 16.6056C77.6872 20.3952 76.7502 24.5805 74.3765 27.3914 72.9293 29.0989 70.6389 30.3898 68.3589 30.4211 64.8608 30.4523 62.0082 27.329 62.3413 23.8829 62.7369 19.7185 67.1096 16.4494 69.4833 13.3678 71.0449 11.348 73.3874 7.15238 73.377 3.78962L72.8773 2.28002C72.617 1.57207 72.1693 1.00987 71.5551 0.593429 70.9825 0.19781 70.2225 0 69.2751 0L66.5057 0C65.6208 0 64.8608 0.229043 64.2153 0.676718 63.5698 1.12439 63.1221 1.66577 62.8827 2.28002L47.9949 46.3916C47.922 46.7248 47.8908 46.9538 47.8908 47.0891 47.8908 48.5154 48.9215 49.2338 50.9933 49.2338L53.6689 49.2338C55.7199 49.2338 57.0629 48.4738 57.698 46.9538L61.0295 37.0529 75.6883 37.0529 79.0614 46.9538C79.6757 48.4738 81.0187 49.2338 83.0905 49.2338L84.8083 49.2338C86.8593 49.2338 87.8796 48.5154 87.8796 47.0891 87.8588 46.9434 87.8275 46.7143 87.7651 46.3812" fill="#FCC224" transform="matrix(1 0 0 1.00095 905.942 583.618)"/><path d="M7.27732 71.1699C7.86034 71.1699 8.53705 71.2011 9.30747 71.2532 10.0779 71.3052 10.7962 71.5343 11.473 71.9299 12.1497 72.3255 12.7223 72.971 13.2012 73.8559 13.6697 74.7513 13.9092 76.0214 13.9092 77.6976L13.9092 87.2341 12.7223 87.2341C12.108 87.2341 11.5875 87.1404 11.1294 86.9634 10.6817 86.7864 10.3486 86.4325 10.1508 85.9119 9.88008 86.2242 9.45323 86.5574 8.87021 86.9114 8.28719 87.2549 7.48554 87.4527 6.46526 87.5048 5.63237 87.5256 4.82031 87.4319 4.02907 87.2341 3.23783 87.0259 2.54029 86.7031 1.93645 86.2555 1.33261 85.8078 0.843294 85.2352 0.49973 84.5481 0.145755 83.8609-0.0208221 83.0489 0 82.1015 0.0416442 80.1234 0.968227 78.7803 2.75893 78.0932 4.54962 77.4061 7.02745 77.3124 10.182 77.8017 10.2965 77.1042 10.2757 76.4587 10.1091 75.8757 9.97378 75.3759 9.68227 74.9283 9.245 74.5222 8.80774 74.1162 8.08938 73.908 7.10033 73.908 6.15293 73.908 5.32004 73.9809 4.61209 74.1266 3.90414 74.2724 3.31071 74.3557 2.8318 74.3661 2.3529 74.3765 1.99892 74.2411 1.74905 73.96 1.49919 73.6789 1.37426 73.0959 1.37426 72.2214 1.87399 72.0444 2.42577 71.8674 3.02961 71.7112 3.55016 71.5759 4.16442 71.451 4.89319 71.3364 5.63237 71.2323 6.4132 71.1699 7.27732 71.1699M6.52772 84.5377C6.99622 84.5377 7.46472 84.4752 7.91239 84.3503 8.36007 84.2253 8.7661 84.0067 9.10966 83.6944 9.46364 83.382 9.72391 82.9448 9.92172 82.393 10.1091 81.8412 10.1924 81.1332 10.1716 80.2795 9.85926 80.1858 9.50528 80.113 9.12007 80.0401 8.80774 79.9984 8.42253 79.9464 7.96445 79.9047 7.51677 79.8631 7.02745 79.8527 6.5069 79.8735 6.19457 79.8943 5.87183 79.9464 5.53867 80.0297 5.21593 80.113 4.9036 80.2483 4.6225 80.4357 4.3414 80.6231 4.11236 80.873 3.92496 81.1645 3.74797 81.456 3.65428 81.8308 3.65428 82.2785 3.65428 82.7261 3.72715 83.1009 3.87291 83.3924 4.01866 83.6839 4.21647 83.913 4.47675 84.09 4.73702 84.2566 5.03894 84.3815 5.39292 84.444 5.77813 84.496 6.14251 84.5377 6.52772 84.5377" fill="#1562A1" transform="matrix(1 0 0 1.00095 905.942 583.618)"/><path d="M31.3581 71.4822 31.3581 85.079C31.3581 86.5678 31.1394 87.8275 30.7022 88.8686 30.2649 89.9098 29.6819 90.7426 28.9739 91.3881 28.266 92.0336 27.4539 92.5021 26.5377 92.7936 25.6216 93.0851 24.695 93.2309 23.7476 93.2309 22.8939 93.2309 22.061 93.1788 21.2593 93.0851 20.4577 92.981 19.7289 92.8665 19.073 92.7311 18.3338 92.5958 17.6155 92.4292 16.9388 92.221 17.0325 91.2736 17.2823 90.6385 17.6884 90.3262 18.0944 90.0139 18.5941 89.8473 19.1875 89.8473 19.781 89.8473 20.4577 89.9306 21.2177 90.0867 21.9777 90.2429 22.7585 90.3262 23.5706 90.3262 24.0911 90.3262 24.5701 90.2325 25.0281 90.0347 25.4758 89.8473 25.8714 89.535 26.1942 89.1185 26.5169 88.7021 26.7772 88.1607 26.9542 87.4944 27.1312 86.8281 27.2249 86.0264 27.2249 85.079L27.2249 84.1628C26.975 84.4127 26.6835 84.6418 26.3399 84.8396 26.0484 85.0166 25.684 85.1831 25.2364 85.3185 24.7991 85.4538 24.2681 85.5475 23.6643 85.5892 22.6752 85.6516 21.707 85.5788 20.77 85.3497 19.833 85.1207 19.0001 84.725 18.2818 84.142 17.5634 83.5694 16.9804 82.799 16.5536 81.8308 16.1267 80.8625 15.9081 79.6653 15.9081 78.2494 15.9081 77.1875 16.0746 76.2088 16.3974 75.2926 16.7201 74.3765 17.2095 73.5956 17.8549 72.9398 18.5004 72.2839 19.3021 71.8049 20.2703 71.4822 21.2385 71.1595 22.3733 71.0658 23.6539 71.1699 24.7158 71.2844 25.5487 71.5551 26.1734 71.9819 26.7876 72.4088 27.2249 72.7523 27.4747 73.0022 27.6517 72.3671 27.9849 71.9611 28.4534 71.7737 28.9219 71.5863 29.4945 71.4822 30.14 71.4822L31.3581 71.4822ZM27.2353 78.5409C27.329 77.6664 27.2769 76.9376 27.0791 76.3754 26.8917 75.8132 26.621 75.3655 26.2879 75.0428 25.9443 74.72 25.5799 74.491 25.1843 74.3452 24.7887 74.2099 24.4243 74.1266 24.0807 74.1058 23.7892 74.085 23.4248 74.0954 22.998 74.137 22.5711 74.1787 22.1443 74.3244 21.707 74.5639 21.2802 74.8033 20.9054 75.1781 20.5722 75.6987 20.2495 76.2192 20.0413 76.948 19.9476 77.8954 19.833 78.9053 19.8851 79.7173 20.1037 80.3316 20.3224 80.9458 20.593 81.4039 20.9366 81.7371 21.2802 82.0702 21.6446 82.2785 22.0506 82.393 22.4566 82.5075 22.821 82.57 23.1333 82.6012 23.4457 82.622 23.8205 82.6116 24.2473 82.5491 24.6742 82.4971 25.0906 82.3201 25.4966 82.039 25.9027 81.7579 26.2671 81.3415 26.5794 80.7897 26.9021 80.2483 27.1208 79.4987 27.2353 78.5409" fill="#1562A1" transform="matrix(1 0 0 1.00095 905.942 583.618)"/><path d="M41.8732 74.1474C40.9258 74.0121 40.1658 74.3244 39.5932 75.0948 39.0206 75.8653 38.7291 77.2187 38.7291 79.1551L38.7291 87.2341 37.5422 87.2341C37.1362 87.2341 36.7614 87.2029 36.4282 87.13 36.0847 87.0675 35.7932 86.9322 35.5329 86.724 35.2726 86.5157 35.0748 86.2451 34.9395 85.9015 34.8041 85.5475 34.7312 85.1103 34.7312 84.5585L34.7312 71.4822 35.9181 71.4822C36.574 71.4822 37.1362 71.5759 37.6047 71.7737 38.0836 71.9611 38.4063 72.3671 38.5833 72.971 38.6978 72.8356 38.8436 72.6691 39.0206 72.4817 39.1976 72.2943 39.4162 72.1069 39.6661 71.9195 39.9159 71.7425 40.197 71.5863 40.5094 71.4406 40.8217 71.3052 41.1861 71.2115 41.5921 71.1699 42.3105 71.1074 42.9351 71.1178 43.4557 71.2011 43.9762 71.2948 44.4031 71.3885 44.7467 71.503 45.1527 71.6592 45.4858 71.8466 45.7565 72.0444 45.7149 72.5233 45.5483 72.9398 45.2776 73.2937 45.0278 73.6061 44.6425 73.8663 44.1324 74.0641 43.6223 74.2828 42.8727 74.3036 41.8732 74.1474" fill="#1562A1" transform="matrix(1 0 0 1.00095 905.942 583.618)"/><path d="M59.978 73.5748C60.6755 74.3244 61.2273 75.1781 61.6229 76.1568 62.0186 77.1354 62.2164 78.2077 62.2164 79.353 62.2164 80.4773 62.0394 81.5393 61.675 82.5179 61.3106 83.4965 60.8109 84.3607 60.155 85.1103 59.4991 85.8494 58.6974 86.4429 57.75 86.8697 56.8026 87.2966 55.7511 87.5152 54.6059 87.5152 53.544 87.5152 52.5549 87.307 51.6492 86.8697 50.733 86.4429 49.9314 85.8599 49.2338 85.1103 48.5363 84.3607 47.9845 83.507 47.5889 82.5179 47.1932 81.5393 46.9954 80.4773 46.9954 79.353 46.9954 78.2077 47.1724 77.1354 47.5368 76.1568 47.9012 75.1781 48.4009 74.314 49.0568 73.5748 49.7127 72.8565 50.5144 72.2734 51.4618 71.8362 52.4092 71.3989 53.4607 71.1699 54.6059 71.1699 55.6678 71.1699 56.6569 71.3885 57.5835 71.8362 58.4996 72.2734 59.3013 72.8565 59.978 73.5748M54.1582 84.5689C54.4497 84.5897 54.8037 84.5585 55.2097 84.4544 55.6158 84.3503 56.0114 84.1316 56.407 83.7776 56.8026 83.4341 57.1462 82.9239 57.4585 82.2576 57.7605 81.5913 57.9687 80.7168 58.0832 79.634 58.1769 78.5513 58.1248 77.656 57.927 76.948 57.7396 76.2401 57.4794 75.6779 57.1462 75.2718 56.8235 74.8658 56.4591 74.5743 56.0843 74.4077 55.6991 74.2411 55.3659 74.137 55.064 74.1162 54.7725 74.0954 54.4185 74.137 54.0021 74.2411 53.5856 74.3452 53.19 74.5639 52.8048 74.897 52.4196 75.2406 52.076 75.7403 51.7533 76.4066 51.441 77.0729 51.2327 77.9475 51.1494 79.0302 51.0349 80.113 51.0766 81.0083 51.264 81.7163 51.4514 82.4242 51.7116 82.9864 52.0448 83.4028 52.3675 83.8193 52.7319 84.1108 53.1275 84.2774 53.5232 84.4544 53.8667 84.5481 54.1582 84.5689" fill="#1562A1" transform="matrix(1 0 0 1.00095 905.942 583.618)"/><path d="M78.4784 82.9135C78.3639 83.9546 78.0203 84.7875 77.4477 85.4226 76.8751 86.0577 76.188 86.5366 75.3864 86.8593 74.5847 87.1925 73.731 87.3903 72.8356 87.4632 71.9299 87.536 71.1178 87.5464 70.3995 87.484 69.5458 87.4215 68.7649 87.2966 68.0674 87.1092 67.3698 86.9322 66.7556 86.7448 66.235 86.5678 65.652 86.3388 65.1211 86.1201 64.6422 85.8911 64.7359 85.0374 64.9128 84.4752 65.1835 84.2149 65.4542 83.9546 65.829 83.8505 66.2975 83.8922 66.766 83.9338 67.3594 84.0692 68.057 84.2982 68.7545 84.5272 69.5666 84.6834 70.4932 84.7771 71.8258 84.9124 72.8877 84.7875 73.6893 84.4023 74.491 84.0171 74.8762 83.4861 74.8554 82.8094 74.8346 82.3826 74.5535 82.0286 74.0225 81.7579 73.4915 81.4872 72.8356 81.2374 72.0444 80.9979 71.2532 80.7584 70.4203 80.5086 69.5249 80.2587 68.6296 79.9984 67.8071 79.6757 67.0575 79.2801 66.2975 78.8845 65.6833 78.3847 65.2148 77.7809 64.7463 77.1666 64.538 76.4066 64.6109 75.48 64.6838 74.4389 65.0065 73.6269 65.5896 73.023 66.1726 72.4296 66.8701 71.9923 67.6822 71.7008 68.4942 71.4197 69.3479 71.2636 70.2537 71.2219 71.1595 71.1907 71.9715 71.2011 72.6899 71.274 73.5436 71.3677 74.314 71.4926 75.0116 71.6592 75.6987 71.8258 76.3025 72.0028 76.8231 72.1797 77.4061 72.4088 77.9475 72.6378 78.4472 72.8565 78.3535 73.7102 78.1765 74.2724 77.9058 74.5326 77.6351 74.7929 77.2603 74.897 76.7918 74.8554 76.3129 74.8137 75.7299 74.6784 75.0324 74.4494 74.3348 74.2203 73.5228 74.0641 72.5962 73.9809 71.2636 73.8455 70.1808 73.908 69.3271 74.1683 68.4838 74.4285 68.109 74.8866 68.1923 75.5425 68.234 75.9069 68.5255 76.2088 69.0668 76.4587 69.6082 76.7085 70.2849 76.948 71.0762 77.1666 71.8778 77.3957 72.7315 77.6455 73.6269 77.9162 74.5326 78.1869 75.3551 78.5409 76.0943 78.9677 76.8335 79.3946 77.4373 79.9256 77.9058 80.5502 78.3847 81.1749 78.5617 81.9661 78.4784 82.9135" fill="#1562A1" transform="matrix(1 0 0 1.00095 905.942 583.618)"/><path d="M87.9837 71.1699C88.5667 71.1699 89.2434 71.2011 90.0139 71.2532 90.7843 71.3052 91.5026 71.5343 92.1794 71.9299 92.8561 72.3255 93.4287 72.971 93.9076 73.8559 94.3865 74.7513 94.6155 76.0214 94.6155 77.6976L94.6155 87.2341 93.4287 87.2341C92.8248 87.2341 92.2939 87.1404 91.8358 86.9634 91.3881 86.7864 91.055 86.4325 90.8571 85.9119 90.5865 86.2242 90.1596 86.5574 89.5662 86.9114 88.9832 87.2549 88.1815 87.4527 87.1612 87.5048 86.3283 87.5256 85.5163 87.4319 84.725 87.2341 83.9338 87.0259 83.2363 86.7031 82.6324 86.2555 82.0286 85.8078 81.5497 85.2352 81.1957 84.5481 80.8417 83.8609 80.6856 83.0385 80.7064 82.0911 80.748 80.113 81.6746 78.7699 83.4653 78.0828 85.256 77.3957 87.7338 77.302 90.8884 77.7913 91.0029 77.0938 90.9821 76.4483 90.8155 75.8653 90.6802 75.3655 90.3887 74.9178 89.9514 74.5118 89.5141 74.1058 88.7958 73.8976 87.8067 73.8976 86.8593 73.8976 86.0264 73.9705 85.3185 74.1162 84.6105 74.262 84.0171 74.3452 83.5382 74.3557 83.0697 74.3661 82.7053 74.2307 82.4554 73.9496 82.2056 73.6685 82.0806 73.0855 82.0806 72.211 82.5804 72.034 83.1322 71.857 83.736 71.7008 84.2566 71.5655 84.8708 71.4406 85.5996 71.326 86.3388 71.2323 87.1196 71.1699 87.9837 71.1699M87.2341 84.5377C87.7026 84.5377 88.1711 84.4752 88.6188 84.3503 89.0665 84.2253 89.4725 84.0067 89.816 83.6944 90.1596 83.382 90.4303 82.9448 90.6281 82.393 90.8155 81.8412 90.8988 81.1332 90.878 80.2795 90.5656 80.1858 90.2117 80.113 89.8265 80.0401 89.5141 79.9984 89.1289 79.9464 88.6812 79.9047 88.2336 79.8631 87.7442 79.8527 87.2237 79.8735 86.9114 79.8943 86.5886 79.9464 86.2555 80.0297 85.9327 80.113 85.6204 80.2483 85.3393 80.4357 85.0582 80.6231 84.8292 80.873 84.6418 81.1645 84.4648 81.456 84.3711 81.8308 84.3711 82.2785 84.3711 82.7261 84.444 83.1009 84.5897 83.3924 84.7355 83.6839 84.9333 83.913 85.1936 84.09 85.4538 84.2566 85.7557 84.3815 86.1097 84.444 86.4845 84.496 86.8489 84.5377 87.2341 84.5377" fill="#1562A1" transform="matrix(1 0 0 1.00095 905.942 583.618)"/><path d="M99.9564 65.5583C100.29 65.6312 100.591 65.7665 100.852 65.9644 101.112 66.1622 101.31 66.4433 101.445 66.7972 101.581 67.1512 101.643 67.5885 101.643 68.1299L101.643 87.2445 100.467 87.2445C100.061 87.2445 99.6857 87.2133 99.3526 87.1404 99.009 87.0779 98.7175 86.9426 98.4572 86.7344 98.1969 86.5262 97.9991 86.2555 97.8638 85.9119 97.7284 85.5579 97.6556 85.1207 97.6556 84.5689L97.6556 65.4542 98.8424 65.4542C99.2485 65.4542 99.6128 65.4855 99.9564 65.5583" fill="#1562A1" transform="matrix(1 0 0 1.00095 905.942 583.618)"/><path d="M115.51 73.7414C115.76 72.8148 116.146 72.1693 116.656 71.8049 117.176 71.4406 117.697 71.2428 118.217 71.2011 118.8 71.1386 119.446 71.2219 120.143 71.4718 120.102 71.6488 120.039 71.8466 119.977 72.0444 119.935 72.2214 119.883 72.4192 119.821 72.617 119.769 72.8252 119.706 73.0335 119.633 73.2625 119.383 74.137 119.102 75.1261 118.769 76.2088 118.446 77.2916 118.072 78.3847 117.666 79.5091 117.26 80.6231 116.822 81.7267 116.343 82.8094 115.864 83.8922 115.386 84.8708 114.886 85.7557 114.501 86.4533 114.032 86.9114 113.46 87.1404 112.897 87.3695 112.356 87.4944 111.835 87.5152 111.232 87.536 110.596 87.4423 109.941 87.2445 109.264 86.4741 108.639 85.5059 108.067 84.3398 107.494 83.1738 106.953 81.9349 106.463 80.6335 105.964 79.3321 105.526 78.0412 105.141 76.7398 104.756 75.4488 104.423 74.2932 104.131 73.2729 104.069 73.0543 103.996 72.8356 103.944 72.6274 103.892 72.4296 103.84 72.2318 103.788 72.0548 103.725 71.857 103.673 71.6592 103.652 71.4822 104.35 71.2323 105.006 71.1386 105.61 71.2115 106.13 71.2532 106.64 71.4614 107.15 71.8154 107.661 72.1797 108.035 72.8252 108.285 73.7518 108.764 75.5946 109.212 77.1458 109.639 78.3951 110.066 79.6445 110.451 80.6647 110.794 81.456 111.18 82.3617 111.544 83.1009 111.877 83.6839 112.169 83.1842 112.512 82.4867 112.897 81.5809 113.21 80.8105 113.584 79.7902 114.032 78.5201 114.48 77.2499 114.969 75.657 115.51 73.7414" fill="#1562A1" transform="matrix(1 0 0 1.00095 905.942 583.618)"/><path d="M128.608 71.1699C129.191 71.1699 129.867 71.2011 130.638 71.2532 131.408 71.3052 132.127 71.5343 132.803 71.9299 133.48 72.3255 134.053 72.971 134.531 73.8559 135.01 74.7513 135.239 76.0214 135.239 77.6976L135.239 87.2341 134.053 87.2341C133.449 87.2341 132.918 87.1404 132.46 86.9634 132.012 86.7864 131.679 86.4325 131.481 85.9119 131.21 86.2242 130.783 86.5574 130.2 86.9114 129.617 87.2549 128.816 87.4527 127.796 87.5048 126.963 87.5256 126.151 87.4319 125.359 87.2341 124.568 87.0259 123.871 86.7031 123.267 86.2555 122.663 85.8078 122.174 85.2352 121.83 84.5481 121.476 83.8609 121.32 83.0385 121.341 82.0911 121.382 80.113 122.309 78.7699 124.1 78.0828 125.89 77.3957 128.368 77.302 131.523 77.7913 131.637 77.0938 131.616 76.4483 131.45 75.8653 131.314 75.3655 131.023 74.9178 130.586 74.5118 130.148 74.1058 129.43 73.8976 128.441 73.8976 127.494 73.8976 126.671 73.9705 125.953 74.1162 125.245 74.262 124.651 74.3452 124.183 74.3557 123.714 74.3661 123.35 74.2307 123.1 73.9496 122.85 73.6685 122.725 73.0855 122.725 72.211 123.225 72.034 123.777 71.857 124.381 71.7008 124.901 71.5655 125.516 71.4406 126.244 71.326 126.963 71.2323 127.743 71.1699 128.608 71.1699M127.858 84.5377C128.326 84.5377 128.795 84.4752 129.243 84.3503 129.69 84.2253 130.096 84.0067 130.44 83.6944 130.794 83.382 131.065 82.9448 131.252 82.393 131.439 81.8412 131.533 81.1332 131.502 80.2795 131.19 80.1858 130.836 80.113 130.45 80.0401 130.138 79.9984 129.753 79.9464 129.305 79.9047 128.857 79.8631 128.368 79.8527 127.848 79.8735 127.535 79.8943 127.213 79.9464 126.879 80.0297 126.557 80.113 126.244 80.2483 125.963 80.4357 125.682 80.6231 125.453 80.873 125.266 81.1645 125.089 81.456 124.995 81.8308 124.995 82.2785 124.995 82.7261 125.068 83.1009 125.214 83.3924 125.359 83.6839 125.557 83.913 125.817 84.09 126.078 84.2566 126.38 84.3815 126.734 84.444 127.108 84.496 127.473 84.5377 127.858 84.5377" fill="#1562A1" transform="matrix(1 0 0 1.00095 905.942 583.618)"/><path d="M138.665 83.8193C139.768 83.8193 140.612 84.673 140.612 85.7349 140.612 86.8177 139.758 87.661 138.654 87.661 137.551 87.661 136.676 86.8177 136.676 85.7349 136.687 84.673 137.561 83.8193 138.665 83.8193L138.665 83.8193ZM138.644 84.2045C137.801 84.2045 137.176 84.8916 137.176 85.7349 137.176 86.5886 137.801 87.2653 138.665 87.2653 139.508 87.2758 140.133 86.5886 140.133 85.7349 140.133 84.8916 139.508 84.2045 138.665 84.2045L138.644 84.2045ZM138.352 86.724 137.915 86.724 137.915 84.8187C138.082 84.7875 138.331 84.7459 138.644 84.7459 138.998 84.7459 139.164 84.8083 139.31 84.902 139.414 84.9853 139.498 85.1415 139.498 85.3081 139.498 85.5267 139.331 85.6933 139.102 85.7662L139.102 85.787C139.289 85.839 139.393 85.9952 139.456 86.2555 139.518 86.547 139.55 86.6615 139.591 86.724L139.112 86.724C139.05 86.6511 139.019 86.4949 138.956 86.2763 138.925 86.0577 138.81 85.964 138.561 85.964L138.352 85.964 138.352 86.724ZM138.363 85.6516 138.571 85.6516C138.81 85.6516 139.008 85.5683 139.008 85.3705 139.008 85.1936 138.883 85.079 138.602 85.079 138.477 85.079 138.404 85.0894 138.352 85.0998L138.352 85.6516Z" fill="#1562A1" transform="matrix(1 0 0 1.00095 905.942 583.618)"/><path d="M10.5047 62.4454 10.5047 57.2399 11.5146 57.2399 11.5146 62.4454 10.5047 62.4454Z" fill="#1562A1" transform="matrix(1 0 0 1.00095 905.942 583.618)"/><path d="M21.3426 59.1035 21.3426 62.4454 20.3328 62.4454 20.3328 57.2295 21.1136 57.2295 23.8309 60.6547 23.8309 57.2399 24.8407 57.2399 24.8407 62.4454 24.0183 62.4454 21.3426 59.1035Z" fill="#1562A1" transform="matrix(1 0 0 1.00095 905.942 583.618)"/><path d="M33.6381 62.4454 33.6381 57.2295 35.5329 57.2295C37.2403 57.2295 38.1044 58.3851 38.1044 59.8323 38.1044 61.4147 37.0945 62.4454 35.5329 62.4454L33.6381 62.4454ZM35.5329 58.1248 34.6479 58.1248 34.6479 61.5605 35.5329 61.5605C36.5323 61.5605 37.0841 60.8213 37.0841 59.8323 37.0841 58.8328 36.5219 58.1248 35.5329 58.1248Z" fill="#1562A1" transform="matrix(1 0 0 1.00095 905.942 583.618)"/><path d="M50.1083 59.8947 50.1083 57.2399 51.1182 57.2399 51.1182 59.8947C51.1182 61.321 50.4519 62.4871 48.8382 62.4871 47.1724 62.4871 46.5582 61.2482 46.5582 59.8947L46.5582 57.2399 47.568 57.2399 47.568 59.8947C47.568 60.7692 47.8804 61.5917 48.8278 61.5917 49.796 61.5917 50.1083 60.7484 50.1083 59.8947Z" fill="#1562A1" transform="matrix(1 0 0 1.00095 905.942 583.618)"/><path d="M62.9556 58.6037C62.8202 58.458 62.1747 58.0936 61.5501 58.0936 60.9983 58.0936 60.7172 58.3018 60.7172 58.6766 60.7172 59.1035 61.1232 59.2076 61.904 59.4158 62.9347 59.6761 63.5802 59.9988 63.5802 60.9566 63.5802 62.081 62.6745 62.5079 61.6438 62.5079 60.8629 62.5079 60.0613 62.258 59.4575 61.8312L59.9051 60.9566C60.0821 61.1336 60.8629 61.5917 61.6646 61.5917 62.2164 61.5917 62.4975 61.4043 62.4975 61.0608 62.4975 60.6027 61.9665 60.4673 61.144 60.2487 60.155 59.978 59.6657 59.6344 59.6657 58.8432 59.6657 57.7813 60.509 57.2087 61.5709 57.2087 62.2997 57.2087 62.9347 57.4794 63.3928 57.7917L62.9556 58.6037Z" fill="#1562A1" transform="matrix(1 0 0 1.00095 905.942 583.618)"/><path d="M75.9381 58.1248 74.2828 58.1248 74.2828 62.4454 73.2729 62.4454 73.2729 58.1248 71.6071 58.1248 71.6071 57.2399 75.9485 57.2399 75.9485 58.1248Z" fill="#1562A1" transform="matrix(1 0 0 1.00095 905.942 583.618)"/><path d="M84.3086 62.4454 84.3086 57.2295 86.6095 57.2295C87.5673 57.2295 88.2648 58.1144 88.2648 58.9577 88.2648 59.624 87.9004 60.2383 87.3278 60.4777L88.5563 62.435 87.4111 62.435 86.3179 60.686 85.3185 60.686 85.3185 62.435 84.3086 62.435ZM85.3289 59.8114 86.599 59.8114C86.9738 59.8114 87.2549 59.4366 87.2549 58.9681 87.2549 58.4788 86.9114 58.1248 86.547 58.1248L85.3185 58.1248 85.3185 59.8114Z" fill="#1562A1" transform="matrix(1 0 0 1.00095 905.942 583.618)"/><path d="M96.9788 62.4454 96.9788 57.2399 97.9887 57.2399 97.9887 62.4454 96.9788 62.4454Z" fill="#1562A1" transform="matrix(1 0 0 1.00095 905.942 583.618)"/><path d="M106.265 62.4454 108.316 57.2295 109.139 57.2295 111.19 62.4454 110.118 62.4454 109.639 61.144 107.806 61.144 107.327 62.4454 106.265 62.4454ZM108.733 58.3331 107.983 60.4361 109.462 60.4361 108.733 58.3331Z" fill="#1562A1" transform="matrix(1 0 0 1.00095 905.942 583.618)"/><path d="M122.517 58.6037C122.382 58.458 121.736 58.0936 121.112 58.0936 120.56 58.0936 120.279 58.3018 120.279 58.6766 120.279 59.1035 120.685 59.2076 121.466 59.4158 122.496 59.6761 123.142 59.9988 123.142 60.9566 123.142 62.081 122.236 62.5079 121.205 62.5079 120.425 62.5079 119.623 62.258 119.019 61.8312L119.467 60.9566C119.644 61.1336 120.425 61.5917 121.226 61.5917 121.778 61.5917 122.059 61.4043 122.059 61.0608 122.059 60.6027 121.528 60.4673 120.706 60.2487 119.717 59.978 119.227 59.6344 119.227 58.8432 119.227 57.7813 120.071 57.2087 121.132 57.2087 121.861 57.2087 122.496 57.4794 122.954 57.7917L122.517 58.6037Z" fill="#1562A1" transform="matrix(1 0 0 1.00095 905.942 583.618)"/></g></g></svg>