<?xml version="1.0" standalone="no"?><svg xmlns="http://www.w3.org/2000/svg" viewBox="0 0 1440 320"><path fill="#21618C" fill-opacity="1" d="M0,320L21.8,314.7C43.6,309,87,299,131,282.7C174.5,267,218,245,262,240C305.5,235,349,245,393,261.3C436.4,277,480,299,524,277.3C567.3,256,611,192,655,176C698.2,160,742,192,785,192C829.1,192,873,160,916,154.7C960,149,1004,171,1047,192C1090.9,213,1135,235,1178,245.3C1221.8,256,1265,256,1309,224C1352.7,192,1396,128,1418,96L1440,64L1440,320L1418.2,320C1396.4,320,1353,320,1309,320C1265.5,320,1222,320,1178,320C1134.5,320,1091,320,1047,320C1003.6,320,960,320,916,320C872.7,320,829,320,785,320C741.8,320,698,320,655,320C610.9,320,567,320,524,320C480,320,436,320,393,320C349.1,320,305,320,262,320C218.2,320,175,320,131,320C87.3,320,44,320,22,320L0,320Z"></path></svg>